<svg width="48" height="48" viewBox="0 0 48 48" fill="none" xmlns="http://www.w3.org/2000/svg">
<path fill-rule="evenodd" clip-rule="evenodd" d="M24 4.32609C30.408 4.32609 31.168 4.35009 33.7 4.46609C40.204 4.76209 43.242 7.84809 43.538 14.3041C43.654 16.8341 43.676 17.5941 43.676 24.0021C43.676 30.4121 43.652 31.1701 43.538 33.7001C43.24 40.1501 40.21 43.2421 33.7 43.5381C31.168 43.6541 30.412 43.6781 24 43.6781C17.592 43.6781 16.832 43.6541 14.302 43.5381C7.78199 43.2401 4.75999 40.1401 4.46399 33.6981C4.34799 31.1681 4.32399 30.4101 4.32399 24.0001C4.32399 17.5921 4.34999 16.8341 4.46399 14.3021C4.76199 7.84809 7.79199 4.76009 14.302 4.46409C16.834 4.35009 17.592 4.32609 24 4.32609ZM24 0C17.482 0 16.666 0.028 14.106 0.144C5.39 0.544 0.546 5.38 0.146 14.104C0.028 16.666 0 17.482 0 24C0 30.518 0.028 31.336 0.144 33.896C0.544 42.612 5.38 47.456 14.104 47.856C16.666 47.972 17.482 48 24 48C30.518 48 31.336 47.972 33.896 47.856C42.604 47.456 47.46 42.62 47.854 33.896C47.972 31.336 48 30.518 48 24C48 17.482 47.972 16.666 47.856 14.106C47.464 5.398 42.622 0.546 33.898 0.146C31.336 0.028 30.518 0 24 0ZM24 11.6759C17.194 11.6759 11.676 17.1939 11.676 23.9999C11.676 30.8059 17.194 36.3259 24 36.3259C30.806 36.3259 36.324 30.8079 36.324 23.9999C36.324 17.1939 30.806 11.6759 24 11.6759ZM24 32C19.582 32 16 28.42 16 24C16 19.582 19.582 16 24 16C28.418 16 32 19.582 32 24C32 28.42 28.418 32 24 32ZM36.812 8.31027C35.22 8.31027 33.93 9.60027 33.93 11.1903C33.93 12.7803 35.22 14.0703 36.812 14.0703C38.402 14.0703 39.69 12.7803 39.69 11.1903C39.69 9.60027 38.402 8.31027 36.812 8.31027Z" fill="white"/>
<mask id="mask0" mask-type="alpha" maskUnits="userSpaceOnUse" x="0" y="0" width="48" height="48">
<path fill-rule="evenodd" clip-rule="evenodd" d="M24 4.32609C30.408 4.32609 31.168 4.35009 33.7 4.46609C40.204 4.76209 43.242 7.84809 43.538 14.3041C43.654 16.8341 43.676 17.5941 43.676 24.0021C43.676 30.4121 43.652 31.1701 43.538 33.7001C43.24 40.1501 40.21 43.2421 33.7 43.5381C31.168 43.6541 30.412 43.6781 24 43.6781C17.592 43.6781 16.832 43.6541 14.302 43.5381C7.78199 43.2401 4.75999 40.1401 4.46399 33.6981C4.34799 31.1681 4.32399 30.4101 4.32399 24.0001C4.32399 17.5921 4.34999 16.8341 4.46399 14.3021C4.76199 7.84809 7.79199 4.76009 14.302 4.46409C16.834 4.35009 17.592 4.32609 24 4.32609ZM24 0C17.482 0 16.666 0.028 14.106 0.144C5.39 0.544 0.546 5.38 0.146 14.104C0.028 16.666 0 17.482 0 24C0 30.518 0.028 31.336 0.144 33.896C0.544 42.612 5.38 47.456 14.104 47.856C16.666 47.972 17.482 48 24 48C30.518 48 31.336 47.972 33.896 47.856C42.604 47.456 47.46 42.62 47.854 33.896C47.972 31.336 48 30.518 48 24C48 17.482 47.972 16.666 47.856 14.106C47.464 5.398 42.622 0.546 33.898 0.146C31.336 0.028 30.518 0 24 0ZM24 11.6759C17.194 11.6759 11.676 17.1939 11.676 23.9999C11.676 30.8059 17.194 36.3259 24 36.3259C30.806 36.3259 36.324 30.8079 36.324 23.9999C36.324 17.1939 30.806 11.6759 24 11.6759ZM24 32C19.582 32 16 28.42 16 24C16 19.582 19.582 16 24 16C28.418 16 32 19.582 32 24C32 28.42 28.418 32 24 32ZM36.812 8.31027C35.22 8.31027 33.93 9.60027 33.93 11.1903C33.93 12.7803 35.22 14.0703 36.812 14.0703C38.402 14.0703 39.69 12.7803 39.69 11.1903C39.69 9.60027 38.402 8.31027 36.812 8.31027Z" fill="white"/>
</mask>
<g mask="url(#mask0)">
</g>
</svg>
