<svg width="48" height="48" viewBox="0 0 48 48" fill="none" xmlns="http://www.w3.org/2000/svg">
<path fill-rule="evenodd" clip-rule="evenodd" d="M39.23 6.36825C32.022 5.87625 15.968 5.87825 8.77 6.36825C0.976 6.90025 0.058 11.6082 0 24.0002C0.058 36.3703 0.968 41.0983 8.77 41.6323C15.97 42.1223 32.022 42.1243 39.23 41.6323C47.024 41.1003 47.942 36.3923 48 24.0002C47.942 11.6302 47.032 6.90225 39.23 6.36825ZM18 32.0001V16.0001L34 23.9861L18 32.0001Z" fill="white"/>
<mask id="mask0" mask-type="alpha" maskUnits="userSpaceOnUse" x="0" y="6" width="48" height="37">
<path fill-rule="evenodd" clip-rule="evenodd" d="M39.23 6.36825C32.022 5.87625 15.968 5.87825 8.77 6.36825C0.976 6.90025 0.058 11.6082 0 24.0002C0.058 36.3703 0.968 41.0983 8.77 41.6323C15.97 42.1223 32.022 42.1243 39.23 41.6323C47.024 41.1003 47.942 36.3923 48 24.0002C47.942 11.6302 47.032 6.90225 39.23 6.36825ZM18 32.0001V16.0001L34 23.9861L18 32.0001Z" fill="white"/>
</mask>
<g mask="url(#mask0)">
</g>
</svg>
