<svg width="48" height="48" viewBox="0 0 48 48" fill="none" xmlns="http://www.w3.org/2000/svg">
<path fill-rule="evenodd" clip-rule="evenodd" d="M48 8.618C46.234 9.402 44.336 9.93 42.344 10.168C44.378 8.95 45.94 7.02 46.674 4.72C44.772 5.848 42.664 6.668 40.42 7.11C38.626 5.196 36.064 4 33.232 4C26.874 4 22.202 9.932 23.638 16.09C15.456 15.68 8.2 11.76 3.342 5.802C0.762 10.228 2.004 16.018 6.388 18.95C4.776 18.898 3.256 18.456 1.93 17.718C1.822 22.28 5.092 26.548 9.828 27.498C8.442 27.874 6.924 27.962 5.38 27.666C6.632 31.578 10.268 34.424 14.58 34.504C10.44 37.75 5.224 39.2 0 38.584C4.358 41.378 9.536 43.008 15.096 43.008C33.38 43.008 43.71 27.566 43.086 13.716C45.01 12.326 46.68 10.592 48 8.618Z" fill="white"/>
<mask id="mask0" mask-type="alpha" maskUnits="userSpaceOnUse" x="0" y="4" width="48" height="40">
<path fill-rule="evenodd" clip-rule="evenodd" d="M48 8.618C46.234 9.402 44.336 9.93 42.344 10.168C44.378 8.95 45.94 7.02 46.674 4.72C44.772 5.848 42.664 6.668 40.42 7.11C38.626 5.196 36.064 4 33.232 4C26.874 4 22.202 9.932 23.638 16.09C15.456 15.68 8.2 11.76 3.342 5.802C0.762 10.228 2.004 16.018 6.388 18.95C4.776 18.898 3.256 18.456 1.93 17.718C1.822 22.28 5.092 26.548 9.828 27.498C8.442 27.874 6.924 27.962 5.38 27.666C6.632 31.578 10.268 34.424 14.58 34.504C10.44 37.75 5.224 39.2 0 38.584C4.358 41.378 9.536 43.008 15.096 43.008C33.38 43.008 43.71 27.566 43.086 13.716C45.01 12.326 46.68 10.592 48 8.618Z" fill="white"/>
</mask>
<g mask="url(#mask0)">
</g>
</svg>
